<?xml version="1.0" encoding="utf-8"?>
<!-- Generator: Adobe Illustrator 16.0.3, SVG Export Plug-In . SVG Version: 6.00 Build 0)  -->
<!DOCTYPE svg PUBLIC "-//W3C//DTD SVG 1.1//EN" "http://www.w3.org/Graphics/SVG/1.1/DTD/svg11.dtd">
<svg version="1.1" id="Layer_1" xmlns="http://www.w3.org/2000/svg" xmlns:xlink="http://www.w3.org/1999/xlink" x="0px" y="0px"
	 width="140.207px" height="34.238px" viewBox="0 0 140.207 34.238" enable-background="new 0 0 140.207 34.238"
	 xml:space="preserve">
<g>
	<path fill="none" d="M47.762,13.585c1.385,0,2.555,1.105,3.01,2.105h6.216c-0.474-4-4.05-8.201-8.902-8.201
		s-8.427,4.201-8.902,8.201h5.567C45.207,14.691,46.377,13.585,47.762,13.585z"/>
	<path fill="none" d="M79,15.691h14.042c-0.136-4-4.108-9-9.278-9H79V15.691z"/>
	<path fill="none" d="M47.762,20.796c-1.385,0-2.555-1.105-3.01-2.105h-5.547c0.535,4,4.082,8.057,8.881,8.057
		c4.8,0,8.347-4.057,8.881-8.057h-6.196C50.317,19.691,49.146,20.796,47.762,20.796z"/>
	<path fill="none" d="M79,24.691h4.765c4.561,0,8.19-2,9.079-6H79V24.691z"/>
	<path fill="none" d="M123.141,7.67c-4.853,0-8.428,4.021-8.901,8.021h5.56c0.454-1,1.625-1.925,3.01-1.925
		c1.778,0,3.22,1.532,3.22,3.31c0,1.779-1.442,3.471-3.22,3.471c-1.385,0-2.556-0.855-3.01-1.855h-5.54
		c0.534,4,4.081,7.852,8.881,7.852c5.214,0,8.959-4.365,8.959-9.437S128.355,7.67,123.141,7.67z"/>
	<path fill="#FFFFFF" d="M123.141,0.18c-9.354,0-16.51,6.511-17.031,15.511h-4.954c-0.131-9-7.339-15-17.391-15H71V0.47V0.447
		v15.244h-5.882C64.596,6.691,57.441,0,48.086,0c-9.354,0-16.51,6.691-17.032,15.691H18v-9h10v-6H0v6h11v26h7v-14h13.065
		c0.591,8,7.718,15.547,17.021,15.547c9.304,0,16.43-7.547,17.021-15.547H71V32.52v-0.024v0.195h12.765c9.432,0,16.359-6,17.288-14
		h5.068c0.591,8,7.718,15.342,17.021,15.342c9.718,0,17.065-7.541,17.065-16.927C140.207,7.72,132.859,0.18,123.141,0.18z
		 M48.086,7.49c4.852,0,8.428,4.201,8.902,8.201h-6.216c-0.455-1-1.625-2.105-3.01-2.105s-2.555,1.105-3.01,2.105h-5.567
		C39.659,11.691,43.234,7.49,48.086,7.49z M48.086,26.748c-4.8,0-8.347-4.057-8.881-8.057h5.547c0.455,1,1.625,2.105,3.01,2.105
		s2.555-1.105,3.01-2.105h6.196C56.433,22.691,52.886,26.748,48.086,26.748z M93.042,15.691H79v-9h4.765
		C88.935,6.691,92.906,11.691,93.042,15.691z M83.765,24.691H79v-6h13.843C91.955,22.691,88.325,24.691,83.765,24.691z
		 M123.141,26.543c-4.8,0-8.347-3.852-8.881-7.852h5.54c0.454,1,1.625,1.9,3.01,1.9c1.778,0,3.22-1.544,3.22-3.323
		c0-1.778-1.442-3.452-3.22-3.452c-1.385,0-2.556,0.874-3.01,1.874h-5.56c0.474-4,4.049-8.021,8.901-8.021
		c5.214,0,8.959,4.363,8.959,9.436S128.355,26.543,123.141,26.543z"/>
</g>
</svg>
