<?xml version="1.0" encoding="utf-8"?>
<!-- Generator: Adobe Illustrator 16.0.3, SVG Export Plug-In . SVG Version: 6.00 Build 0)  -->
<!DOCTYPE svg PUBLIC "-//W3C//DTD SVG 1.1//EN" "http://www.w3.org/Graphics/SVG/1.1/DTD/svg11.dtd">
<svg version="1.1" id="Layer_1" xmlns="http://www.w3.org/2000/svg" xmlns:xlink="http://www.w3.org/1999/xlink" x="0px" y="0px"
	 width="141.729px" height="34.941px" viewBox="0 0 141.729 34.941" enable-background="new 0 0 141.729 34.941"
	 xml:space="preserve">
<g>
	<path fill="none" d="M84.536,7.691h-5.12v9h14.389C93.551,11.691,89.625,7.691,84.536,7.691z"/>
	<path fill="none" d="M84.536,25.691c4.646,0,8.327-3,9.128-7H79.417v7H84.536z"/>
	<path fill="none" d="M48.519,21.026c-1.47,0-2.696-1.335-3.082-2.335h-5.51c0.438,4,4.033,8.289,8.917,8.289
		s8.479-4.289,8.917-8.289h-6.158C51.215,19.691,49.989,21.026,48.519,21.026z"/>
	<path fill="none" d="M48.519,14.814c1.298,0,2.409-0.123,2.919,1.877h6.279c-0.569-5-4.101-7.975-8.873-7.975
		s-8.304,2.975-8.873,7.975h5.63C46.111,14.691,47.222,14.814,48.519,14.814z"/>
	<path fill="none" d="M123.926,8.482c-4.771,0-8.304,3.209-8.873,8.209h5.363v-0.36c0-1.165,1.735-1.984,3.075-1.984
		c1.78,0,3.273,1.442,3.273,3.221c0,1.779-1.417,3.339-3.196,3.339c-1.47,0-2.669-1.216-3.057-2.216h-5.503
		c0.438,4,4.033,8.171,8.917,8.171c5.217,0,8.962-4.116,8.962-9.19S129.143,8.482,123.926,8.482z"/>
	<path fill="#808080" d="M84.536,25.719h-4.797v-7.265v-2.23V7.889h4.797c5.089,0,9.015,3.595,9.269,8.335h8.123
		c-0.246-9.176-7.419-15.543-17.392-15.543H71.589v0.185l-0.027-0.022v15.38v2.23v14.474l0.027-0.024v0.024h12.947
		c9.52,0,16.493-5.843,17.32-14.474h-8.192C92.863,22.687,89.182,25.719,84.536,25.719z"/>
	<path fill="#0089CF" d="M123.926,0.99c-9.276,0-16.39,6.701-17.021,15.701h-4.978h-8.123H79.417v2h14.248h8.192h5.026
		c0.481,9,7.656,15.664,17.044,15.664c9.722,0,17.072-7.293,17.072-16.683S133.648,0.99,123.926,0.99z M123.926,26.862
		c-4.884,0-8.479-4.171-8.917-8.171h5.503c-0.081-1-0.241-0.695-0.241-1.005c0-0.438,0.146-0.974,0.146-1.355v0.36h-5.363
		c0.569-5,4.101-8.209,8.873-8.209c5.217,0,8.962,4.115,8.962,9.189S129.143,26.862,123.926,26.862z"/>
	<path fill="#0089CF" d="M65.865,16.691c-0.631-9-7.744-15.468-17.021-15.468s-16.39,6.468-17.021,15.468H19.048h-1.06
		c0.189,0,0.302,0.747,0.302,1.229c0,0.31-0.057-0.229-0.139,0.771h0.896H31.8c0.481,9,7.656,15.782,17.044,15.782
		s16.563-6.782,17.044-15.782h5.529v-2H65.865z M48.844,26.98c-4.884,0-8.479-4.289-8.917-8.289h5.51
		c-0.082-1-0.139-0.461-0.139-0.771c0-0.482,0.113-1.229,0.303-1.229h-5.63c0.569-5,4.101-7.975,8.873-7.975
		s8.304,2.975,8.873,7.975h-6.279c0.189,0,0.302,0.747,0.302,1.229c0,0.31-0.057-0.229-0.138,0.771h6.158
		C57.322,22.691,53.728,26.98,48.844,26.98z"/>
	<path fill="#808080" d="M123.594,20.789c1.78,0,3.222-1.442,3.222-3.221c0-1.779-1.442-3.221-3.222-3.221
		c-1.34,0-2.488,0.819-2.973,1.984c-0.159,0.381-0.248,0.798-0.248,1.237c0,0.31,0.058,0.603,0.139,0.886
		C120.899,19.799,122.125,20.789,123.594,20.789z"/>
	<path fill="#808080" d="M48.519,20.789c1.47,0,2.696-0.99,3.083-2.335c0.081-0.283,0.138-0.576,0.138-0.886
		c0-0.482-0.113-0.935-0.302-1.344c-0.51-1.106-1.621-1.877-2.919-1.877c-1.297,0-2.408,0.771-2.918,1.877
		c-0.19,0.41-0.303,0.862-0.303,1.344c0,0.31,0.058,0.603,0.139,0.886C45.823,19.799,47.049,20.789,48.519,20.789z"/>
	<path fill="#808080" d="M18.291,17.568c0-0.482-0.113-0.935-0.302-1.344h1.06V7.841h10.291V0.681H0.791v7.161h10.291v25.086h7.967
		V18.454h-0.896C18.234,18.17,18.291,17.877,18.291,17.568z"/>
</g>
</svg>
